<?xml version="1.0" encoding="UTF-8" standalone="no"?>
<!DOCTYPE svg PUBLIC "-//W3C//DTD SVG 1.1//EN"
 "http://www.w3.org/Graphics/SVG/1.1/DTD/svg11.dtd">
<!-- Generated by graphviz version 2.44.1 (0)
 -->
<!-- Title: G Pages: 1 -->
<svg width="682pt" height="638pt"
 viewBox="0.00 0.00 682.00 638.00" xmlns="http://www.w3.org/2000/svg" xmlns:xlink="http://www.w3.org/1999/xlink">
<g id="graph0" class="graph" transform="scale(1 1) rotate(0) translate(4 634)">
<title>G</title>
<polygon fill="white" stroke="transparent" points="-4,4 -4,-634 678,-634 678,4 -4,4"/>
<g id="clust1" class="cluster">
<title>cluster_root</title>
<g id="a_clust1"><a xlink:title="eventq_index=0&#10;full_system=false&#10;sim_quantum=0&#10;time_sync_enable=false&#10;time_sync_period=100000000000&#10;time_sync_spin_threshold=100000000">
<path fill="#bab6ae" stroke="#000000" d="M20,-8C20,-8 654,-8 654,-8 660,-8 666,-14 666,-20 666,-20 666,-610 666,-610 666,-616 660,-622 654,-622 654,-622 20,-622 20,-622 14,-622 8,-616 8,-610 8,-610 8,-20 8,-20 8,-14 14,-8 20,-8"/>
<text text-anchor="middle" x="337" y="-606.8" font-family="Arial" font-size="14.00" fill="#000000">root </text>
<text text-anchor="middle" x="337" y="-591.8" font-family="Arial" font-size="14.00" fill="#000000">: Root</text>
</a>
</g>
</g>
<g id="clust2" class="cluster">
<title>cluster_system</title>
<g id="a_clust2"><a xlink:title="byte_order=little&#10;cache_line_size=64&#10;eventq_index=0&#10;exit_on_work_items=false&#10;init_param=0&#10;m5ops_base=0&#10;mem_mode=timing&#10;mem_ranges=0:536870912&#10;memories=system.mem_ctrls.dram&#10;mmap_using_noreserve=false&#10;multi_thread=false&#10;&#10;um_work_ids=16&#10;&#13;eadfile=&#10;&#13;edirect_paths=system.redirect_paths0 system.redirect_paths1 system.redirect_paths2&#10;shared_backstore=&#10;symbolfile=&#10;thermal_components=&#10;thermal_model=Null&#10;work_begin_ckpt_count=0&#10;work_begin_cpu_id_exit=&#45;1&#10;work_begin_exit_count=0&#10;work_cpus_ckpt_count=0&#10;work_end_ckpt_count=0&#10;work_end_exit_count=0&#10;work_item_id=&#45;1&#10;workload=Null">
<path fill="#e4e7eb" stroke="#000000" d="M28,-16C28,-16 646,-16 646,-16 652,-16 658,-22 658,-28 658,-28 658,-564 658,-564 658,-570 652,-576 646,-576 646,-576 28,-576 28,-576 22,-576 16,-570 16,-564 16,-564 16,-28 16,-28 16,-22 22,-16 28,-16"/>
<text text-anchor="middle" x="337" y="-560.8" font-family="Arial" font-size="14.00" fill="#000000">system </text>
<text text-anchor="middle" x="337" y="-545.8" font-family="Arial" font-size="14.00" fill="#000000">: System</text>
</a>
</g>
</g>
<g id="clust4" class="cluster">
<title>cluster_system_cpu</title>
<g id="a_clust4"><a xlink:title="branchPred=Null&#10;checker=Null&#10;clk_domain=system.cpu_clk_domain&#10;cpu_id=0&#10;do_checkpoint_insts=true&#10;do_statistics_insts=true&#10;dtb=system.cpu.dtb&#10;eventq_index=0&#10;function_trace=false&#10;function_trace_start=0&#10;interrupts=system.cpu.interrupts&#10;isa=system.cpu.isa&#10;itb=system.cpu.itb&#10;max_insts_all_threads=0&#10;max_insts_any_thread=0&#10;&#10;umThreads=1&#10;power_gating_on_idle=false&#10;power_model=&#10;power_state=system.cpu.power_state&#10;progress_interval=0&#10;pwr_gating_latency=300&#10;simpoint_start_insts=&#10;socket_id=0&#10;switched_out=false&#10;syscallRetryLatency=10000&#10;system=system&#10;tracer=system.cpu.tracer&#10;wait_for_remote_gdb=false&#10;workload=system.cpu.workload">
<path fill="#bbc6d9" stroke="#000000" d="M36,-24C36,-24 524,-24 524,-24 530,-24 536,-30 536,-36 536,-36 536,-334 536,-334 536,-340 530,-346 524,-346 524,-346 36,-346 36,-346 30,-346 24,-340 24,-334 24,-334 24,-36 24,-36 24,-30 30,-24 36,-24"/>
<text text-anchor="middle" x="280" y="-330.8" font-family="Arial" font-size="14.00" fill="#000000">cpu </text>
<text text-anchor="middle" x="280" y="-315.8" font-family="Arial" font-size="14.00" fill="#000000">: TimingSimpleCPU</text>
</a>
</g>
</g>
<g id="clust5" class="cluster">
<title>cluster_system_cpu_dtb</title>
<g id="a_clust5"><a xlink:title="eventq_index=0&#10;is_stage2=false&#10;size=64&#10;sys=system&#10;walker=system.cpu.dtb.walker">
<path fill="#bab6ae" stroke="#000000" d="M399,-155C399,-155 516,-155 516,-155 522,-155 528,-161 528,-167 528,-167 528,-288 528,-288 528,-294 522,-300 516,-300 516,-300 399,-300 399,-300 393,-300 387,-294 387,-288 387,-288 387,-167 387,-167 387,-161 393,-155 399,-155"/>
<text text-anchor="middle" x="457.5" y="-284.8" font-family="Arial" font-size="14.00" fill="#000000">dtb </text>
<text text-anchor="middle" x="457.5" y="-269.8" font-family="Arial" font-size="14.00" fill="#000000">: ArmDTB</text>
</a>
</g>
</g>
<g id="clust10" class="cluster">
<title>cluster_system_cpu_dtb_walker</title>
<g id="a_clust10"><a xlink:title="clk_domain=system.cpu_clk_domain&#10;eventq_index=0&#10;is_stage2=false&#10;&#10;um_squash_per_cycle=2&#10;power_model=&#10;power_state=system.cpu.dtb.walker.power_state&#10;sys=system">
<path fill="#9f9c95" stroke="#000000" d="M407,-163C407,-163 508,-163 508,-163 514,-163 520,-169 520,-175 520,-175 520,-242 520,-242 520,-248 514,-254 508,-254 508,-254 407,-254 407,-254 401,-254 395,-248 395,-242 395,-242 395,-175 395,-175 395,-169 401,-163 407,-163"/>
<text text-anchor="middle" x="457.5" y="-238.8" font-family="Arial" font-size="14.00" fill="#000000">walker </text>
<text text-anchor="middle" x="457.5" y="-223.8" font-family="Arial" font-size="14.00" fill="#000000">: ArmTableWalker</text>
</a>
</g>
</g>
<g id="clust12" class="cluster">
<title>cluster_system_cpu_itb</title>
<g id="a_clust12"><a xlink:title="eventq_index=0&#10;is_stage2=false&#10;size=64&#10;sys=system&#10;walker=system.cpu.itb.walker">
<path fill="#bab6ae" stroke="#000000" d="M250,-155C250,-155 367,-155 367,-155 373,-155 379,-161 379,-167 379,-167 379,-288 379,-288 379,-294 373,-300 367,-300 367,-300 250,-300 250,-300 244,-300 238,-294 238,-288 238,-288 238,-167 238,-167 238,-161 244,-155 250,-155"/>
<text text-anchor="middle" x="308.5" y="-284.8" font-family="Arial" font-size="14.00" fill="#000000">itb </text>
<text text-anchor="middle" x="308.5" y="-269.8" font-family="Arial" font-size="14.00" fill="#000000">: ArmITB</text>
</a>
</g>
</g>
<g id="clust17" class="cluster">
<title>cluster_system_cpu_itb_walker</title>
<g id="a_clust17"><a xlink:title="clk_domain=system.cpu_clk_domain&#10;eventq_index=0&#10;is_stage2=false&#10;&#10;um_squash_per_cycle=2&#10;power_model=&#10;power_state=system.cpu.itb.walker.power_state&#10;sys=system">
<path fill="#9f9c95" stroke="#000000" d="M258,-163C258,-163 359,-163 359,-163 365,-163 371,-169 371,-175 371,-175 371,-242 371,-242 371,-248 365,-254 359,-254 359,-254 258,-254 258,-254 252,-254 246,-248 246,-242 246,-242 246,-175 246,-175 246,-169 252,-163 258,-163"/>
<text text-anchor="middle" x="308.5" y="-238.8" font-family="Arial" font-size="14.00" fill="#000000">walker </text>
<text text-anchor="middle" x="308.5" y="-223.8" font-family="Arial" font-size="14.00" fill="#000000">: ArmTableWalker</text>
</a>
</g>
</g>
<g id="clust23" class="cluster">
<title>cluster_system_cpu_icache</title>
<g id="a_clust23"><a xlink:title="addr_ranges=0:18446744073709551615&#10;assoc=2&#10;clk_domain=system.cpu_clk_domain&#10;clusivity=mostly_incl&#10;compressor=Null&#10;data_latency=2&#10;demand_mshr_reserve=1&#10;eventq_index=0&#10;is_read_only=true&#10;max_miss_count=0&#10;mshrs=4&#10;power_model=&#10;power_state=system.cpu.icache.power_state&#10;prefetch_on_access=false&#10;prefetcher=Null&#10;&#13;eplacement_policy=system.cpu.icache.replacement_policy&#10;&#13;esponse_latency=2&#10;sequential_access=false&#10;size=32768&#10;system=system&#10;tag_latency=2&#10;tags=system.cpu.icache.tags&#10;tgts_per_mshr=20&#10;warmup_percentage=0&#10;write_allocator=Null&#10;write_buffers=8&#10;writeback_clean=true">
<path fill="#bab6ae" stroke="#000000" d="M102,-32C102,-32 264,-32 264,-32 270,-32 276,-38 276,-44 276,-44 276,-111 276,-111 276,-117 270,-123 264,-123 264,-123 102,-123 102,-123 96,-123 90,-117 90,-111 90,-111 90,-44 90,-44 90,-38 96,-32 102,-32"/>
<text text-anchor="middle" x="183" y="-107.8" font-family="Arial" font-size="14.00" fill="#000000">icache </text>
<text text-anchor="middle" x="183" y="-92.8" font-family="Arial" font-size="14.00" fill="#000000">: L1_ICache</text>
</a>
</g>
</g>
<g id="clust29" class="cluster">
<title>cluster_system_cpu_dcache</title>
<g id="a_clust29"><a xlink:title="addr_ranges=0:18446744073709551615&#10;assoc=2&#10;clk_domain=system.cpu_clk_domain&#10;clusivity=mostly_incl&#10;compressor=Null&#10;data_latency=2&#10;demand_mshr_reserve=1&#10;eventq_index=0&#10;is_read_only=false&#10;max_miss_count=0&#10;mshrs=4&#10;power_model=&#10;power_state=system.cpu.dcache.power_state&#10;prefetch_on_access=false&#10;prefetcher=Null&#10;&#13;eplacement_policy=system.cpu.dcache.replacement_policy&#10;&#13;esponse_latency=2&#10;sequential_access=false&#10;size=65536&#10;system=system&#10;tag_latency=2&#10;tags=system.cpu.dcache.tags&#10;tgts_per_mshr=20&#10;warmup_percentage=0&#10;write_allocator=Null&#10;write_buffers=8&#10;writeback_clean=false">
<path fill="#bab6ae" stroke="#000000" d="M325,-32C325,-32 487,-32 487,-32 493,-32 499,-38 499,-44 499,-44 499,-111 499,-111 499,-117 493,-123 487,-123 487,-123 325,-123 325,-123 319,-123 313,-117 313,-111 313,-111 313,-44 313,-44 313,-38 319,-32 325,-32"/>
<text text-anchor="middle" x="406" y="-107.8" font-family="Arial" font-size="14.00" fill="#000000">dcache </text>
<text text-anchor="middle" x="406" y="-92.8" font-family="Arial" font-size="14.00" fill="#000000">: L1_DCache</text>
</a>
</g>
</g>
<g id="clust40" class="cluster">
<title>cluster_system_membus</title>
<g id="a_clust40"><a xlink:title="clk_domain=system.clk_domain&#10;eventq_index=0&#10;forward_latency=4&#10;frontend_latency=3&#10;header_latency=1&#10;max_outstanding_snoops=512&#10;max_routing_table_size=512&#10;point_of_coherency=true&#10;point_of_unification=true&#10;power_model=&#10;power_state=system.membus.power_state&#10;&#13;esponse_latency=2&#10;snoop_filter=system.membus.snoop_filter&#10;snoop_response_latency=4&#10;system=system&#10;use_default_range=false&#10;width=16">
<path fill="#6f798c" stroke="#000000" d="M399,-354C399,-354 638,-354 638,-354 644,-354 650,-360 650,-366 650,-366 650,-433 650,-433 650,-439 644,-445 638,-445 638,-445 399,-445 399,-445 393,-445 387,-439 387,-433 387,-433 387,-366 387,-366 387,-360 393,-354 399,-354"/>
<text text-anchor="middle" x="518.5" y="-429.8" font-family="Arial" font-size="14.00" fill="#000000">membus </text>
<text text-anchor="middle" x="518.5" y="-414.8" font-family="Arial" font-size="14.00" fill="#000000">: SystemXBar</text>
</a>
</g>
</g>
<g id="clust43" class="cluster">
<title>cluster_system_mem_ctrls</title>
<g id="a_clust43"><a xlink:title="clk_domain=system.clk_domain&#10;command_window=10000&#10;dram=system.mem_ctrls.dram&#10;eventq_index=0&#10;mem_sched_policy=frfcfs&#10;min_writes_per_switch=16&#10;&#10;vm=Null&#10;power_model=&#10;power_state=system.mem_ctrls.power_state&#10;qos_policy=Null&#10;qos_priorities=1&#10;qos_priority_escalation=false&#10;qos_q_policy=fifo&#10;qos_requestors= &#160;&#160;&#160;&#160;&#160;&#160;&#160;&#160;&#160;&#160;&#160;&#160;&#160;&#160;&#10;qos_syncro_scheduler=false&#10;qos_turnaround_policy=Null&#10;static_backend_latency=10000&#10;static_frontend_latency=10000&#10;system=system&#10;write_high_thresh_perc=85&#10;write_low_thresh_perc=50">
<path fill="#bab6ae" stroke="#000000" d="M578,-163C578,-163 638,-163 638,-163 644,-163 650,-169 650,-175 650,-175 650,-242 650,-242 650,-248 644,-254 638,-254 638,-254 578,-254 578,-254 572,-254 566,-248 566,-242 566,-242 566,-175 566,-175 566,-169 572,-163 578,-163"/>
<text text-anchor="middle" x="608" y="-238.8" font-family="Arial" font-size="14.00" fill="#000000">mem_ctrls </text>
<text text-anchor="middle" x="608" y="-223.8" font-family="Arial" font-size="14.00" fill="#000000">: MemCtrl</text>
</a>
</g>
</g>
<!-- system_system_port -->
<g id="node1" class="node">
<title>system_system_port</title>
<path fill="#b6b8bc" stroke="#000000" d="M416,-493.5C416,-493.5 484,-493.5 484,-493.5 490,-493.5 496,-499.5 496,-505.5 496,-505.5 496,-517.5 496,-517.5 496,-523.5 490,-529.5 484,-529.5 484,-529.5 416,-529.5 416,-529.5 410,-529.5 404,-523.5 404,-517.5 404,-517.5 404,-505.5 404,-505.5 404,-499.5 410,-493.5 416,-493.5"/>
<text text-anchor="middle" x="450" y="-507.8" font-family="Arial" font-size="14.00" fill="#000000">system_port</text>
</g>
<!-- system_membus_cpu_side_ports -->
<g id="node10" class="node">
<title>system_membus_cpu_side_ports</title>
<path fill="#586070" stroke="#000000" d="M407.5,-362.5C407.5,-362.5 492.5,-362.5 492.5,-362.5 498.5,-362.5 504.5,-368.5 504.5,-374.5 504.5,-374.5 504.5,-386.5 504.5,-386.5 504.5,-392.5 498.5,-398.5 492.5,-398.5 492.5,-398.5 407.5,-398.5 407.5,-398.5 401.5,-398.5 395.5,-392.5 395.5,-386.5 395.5,-386.5 395.5,-374.5 395.5,-374.5 395.5,-368.5 401.5,-362.5 407.5,-362.5"/>
<text text-anchor="middle" x="450" y="-376.8" font-family="Arial" font-size="14.00" fill="#000000">cpu_side_ports</text>
</g>
<!-- system_system_port&#45;&gt;system_membus_cpu_side_ports -->
<g id="edge1" class="edge">
<title>system_system_port&#45;&gt;system_membus_cpu_side_ports</title>
<path fill="none" stroke="black" d="M450,-493.37C450,-471.78 450,-434.41 450,-408.85"/>
<polygon fill="black" stroke="black" points="453.5,-408.7 450,-398.7 446.5,-408.7 453.5,-408.7"/>
</g>
<!-- system_cpu_icache_port -->
<g id="node2" class="node">
<title>system_cpu_icache_port</title>
<path fill="#959ead" stroke="#000000" d="M44.5,-171.5C44.5,-171.5 107.5,-171.5 107.5,-171.5 113.5,-171.5 119.5,-177.5 119.5,-183.5 119.5,-183.5 119.5,-195.5 119.5,-195.5 119.5,-201.5 113.5,-207.5 107.5,-207.5 107.5,-207.5 44.5,-207.5 44.5,-207.5 38.5,-207.5 32.5,-201.5 32.5,-195.5 32.5,-195.5 32.5,-183.5 32.5,-183.5 32.5,-177.5 38.5,-171.5 44.5,-171.5"/>
<text text-anchor="middle" x="76" y="-185.8" font-family="Arial" font-size="14.00" fill="#000000">icache_port</text>
</g>
<!-- system_cpu_icache_cpu_side -->
<g id="node6" class="node">
<title>system_cpu_icache_cpu_side</title>
<path fill="#94918b" stroke="#000000" d="M110.5,-40.5C110.5,-40.5 157.5,-40.5 157.5,-40.5 163.5,-40.5 169.5,-46.5 169.5,-52.5 169.5,-52.5 169.5,-64.5 169.5,-64.5 169.5,-70.5 163.5,-76.5 157.5,-76.5 157.5,-76.5 110.5,-76.5 110.5,-76.5 104.5,-76.5 98.5,-70.5 98.5,-64.5 98.5,-64.5 98.5,-52.5 98.5,-52.5 98.5,-46.5 104.5,-40.5 110.5,-40.5"/>
<text text-anchor="middle" x="134" y="-54.8" font-family="Arial" font-size="14.00" fill="#000000">cpu_side</text>
</g>
<!-- system_cpu_icache_port&#45;&gt;system_cpu_icache_cpu_side -->
<g id="edge2" class="edge">
<title>system_cpu_icache_port&#45;&gt;system_cpu_icache_cpu_side</title>
<path fill="none" stroke="black" d="M83.7,-171.37C93.54,-149.49 110.66,-111.41 122.16,-85.83"/>
<polygon fill="black" stroke="black" points="125.36,-87.26 126.27,-76.7 118.97,-84.39 125.36,-87.26"/>
</g>
<!-- system_cpu_dcache_port -->
<g id="node3" class="node">
<title>system_cpu_dcache_port</title>
<path fill="#959ead" stroke="#000000" d="M150,-171.5C150,-171.5 218,-171.5 218,-171.5 224,-171.5 230,-177.5 230,-183.5 230,-183.5 230,-195.5 230,-195.5 230,-201.5 224,-207.5 218,-207.5 218,-207.5 150,-207.5 150,-207.5 144,-207.5 138,-201.5 138,-195.5 138,-195.5 138,-183.5 138,-183.5 138,-177.5 144,-171.5 150,-171.5"/>
<text text-anchor="middle" x="184" y="-185.8" font-family="Arial" font-size="14.00" fill="#000000">dcache_port</text>
</g>
<!-- system_cpu_dcache_cpu_side -->
<g id="node8" class="node">
<title>system_cpu_dcache_cpu_side</title>
<path fill="#94918b" stroke="#000000" d="M333.5,-40.5C333.5,-40.5 380.5,-40.5 380.5,-40.5 386.5,-40.5 392.5,-46.5 392.5,-52.5 392.5,-52.5 392.5,-64.5 392.5,-64.5 392.5,-70.5 386.5,-76.5 380.5,-76.5 380.5,-76.5 333.5,-76.5 333.5,-76.5 327.5,-76.5 321.5,-70.5 321.5,-64.5 321.5,-64.5 321.5,-52.5 321.5,-52.5 321.5,-46.5 327.5,-40.5 333.5,-40.5"/>
<text text-anchor="middle" x="357" y="-54.8" font-family="Arial" font-size="14.00" fill="#000000">cpu_side</text>
</g>
<!-- system_cpu_dcache_port&#45;&gt;system_cpu_dcache_cpu_side -->
<g id="edge3" class="edge">
<title>system_cpu_dcache_port&#45;&gt;system_cpu_dcache_cpu_side</title>
<path fill="none" stroke="black" d="M210.53,-171.34C230.06,-158.48 257.09,-140.21 280,-123 296.83,-110.36 315.03,-95.41 329.51,-83.2"/>
<polygon fill="black" stroke="black" points="331.78,-85.86 337.14,-76.72 327.25,-80.53 331.78,-85.86"/>
</g>
<!-- system_cpu_dtb_walker_port -->
<g id="node4" class="node">
<title>system_cpu_dtb_walker_port</title>
<path fill="#7f7c77" stroke="#000000" d="M435,-171.5C435,-171.5 465,-171.5 465,-171.5 471,-171.5 477,-177.5 477,-183.5 477,-183.5 477,-195.5 477,-195.5 477,-201.5 471,-207.5 465,-207.5 465,-207.5 435,-207.5 435,-207.5 429,-207.5 423,-201.5 423,-195.5 423,-195.5 423,-183.5 423,-183.5 423,-177.5 429,-171.5 435,-171.5"/>
<text text-anchor="middle" x="450" y="-185.8" font-family="Arial" font-size="14.00" fill="#000000">port</text>
</g>
<!-- system_cpu_itb_walker_port -->
<g id="node5" class="node">
<title>system_cpu_itb_walker_port</title>
<path fill="#7f7c77" stroke="#000000" d="M321,-171.5C321,-171.5 351,-171.5 351,-171.5 357,-171.5 363,-177.5 363,-183.5 363,-183.5 363,-195.5 363,-195.5 363,-201.5 357,-207.5 351,-207.5 351,-207.5 321,-207.5 321,-207.5 315,-207.5 309,-201.5 309,-195.5 309,-195.5 309,-183.5 309,-183.5 309,-177.5 315,-171.5 321,-171.5"/>
<text text-anchor="middle" x="336" y="-185.8" font-family="Arial" font-size="14.00" fill="#000000">port</text>
</g>
<!-- system_cpu_icache_mem_side -->
<g id="node7" class="node">
<title>system_cpu_icache_mem_side</title>
<path fill="#94918b" stroke="#000000" d="M200,-40.5C200,-40.5 256,-40.5 256,-40.5 262,-40.5 268,-46.5 268,-52.5 268,-52.5 268,-64.5 268,-64.5 268,-70.5 262,-76.5 256,-76.5 256,-76.5 200,-76.5 200,-76.5 194,-76.5 188,-70.5 188,-64.5 188,-64.5 188,-52.5 188,-52.5 188,-46.5 194,-40.5 200,-40.5"/>
<text text-anchor="middle" x="228" y="-54.8" font-family="Arial" font-size="14.00" fill="#000000">mem_side</text>
</g>
<!-- system_cpu_dcache_mem_side -->
<g id="node9" class="node">
<title>system_cpu_dcache_mem_side</title>
<path fill="#94918b" stroke="#000000" d="M423,-40.5C423,-40.5 479,-40.5 479,-40.5 485,-40.5 491,-46.5 491,-52.5 491,-52.5 491,-64.5 491,-64.5 491,-70.5 485,-76.5 479,-76.5 479,-76.5 423,-76.5 423,-76.5 417,-76.5 411,-70.5 411,-64.5 411,-64.5 411,-52.5 411,-52.5 411,-46.5 417,-40.5 423,-40.5"/>
<text text-anchor="middle" x="451" y="-54.8" font-family="Arial" font-size="14.00" fill="#000000">mem_side</text>
</g>
<!-- system_membus_cpu_side_ports&#45;&gt;system_cpu_dtb_walker_port -->
<g id="edge7" class="edge">
<title>system_membus_cpu_side_ports&#45;&gt;system_cpu_dtb_walker_port</title>
<path fill="none" stroke="black" d="M450,-352.16C450,-312.61 450,-240.59 450,-207.7"/>
<polygon fill="black" stroke="black" points="446.5,-352.39 450,-362.39 453.5,-352.39 446.5,-352.39"/>
</g>
<!-- system_membus_cpu_side_ports&#45;&gt;system_cpu_itb_walker_port -->
<g id="edge6" class="edge">
<title>system_membus_cpu_side_ports&#45;&gt;system_cpu_itb_walker_port</title>
<path fill="none" stroke="black" d="M402.26,-356.64C398.12,-353.45 394.27,-349.91 391,-346 356.07,-304.29 342.69,-238.84 338.12,-207.86"/>
<polygon fill="black" stroke="black" points="400.3,-359.53 410.51,-362.35 404.28,-353.78 400.3,-359.53"/>
</g>
<!-- system_membus_cpu_side_ports&#45;&gt;system_cpu_icache_mem_side -->
<g id="edge4" class="edge">
<title>system_membus_cpu_side_ports&#45;&gt;system_cpu_icache_mem_side</title>
<path fill="none" stroke="black" d="M502.07,-358.31C513.3,-353.25 522.34,-348.57 524,-346 535.5,-328.17 537.86,-171.07 524,-155 492.46,-118.42 353.37,-142.09 309,-123 283.72,-112.12 259.55,-91.35 244.29,-76.53"/>
<polygon fill="black" stroke="black" points="500.46,-355.2 492.7,-362.42 503.27,-361.61 500.46,-355.2"/>
</g>
<!-- system_membus_cpu_side_ports&#45;&gt;system_cpu_dcache_mem_side -->
<g id="edge5" class="edge">
<title>system_membus_cpu_side_ports&#45;&gt;system_cpu_dcache_mem_side</title>
<path fill="none" stroke="black" d="M500.78,-358.73C505.23,-357.07 509.68,-355.47 514,-354 526.25,-349.82 534.21,-356.33 542,-346 567.56,-312.11 557.77,-194.41 542,-155 528.73,-121.83 497.84,-93.62 475.73,-76.65"/>
<polygon fill="black" stroke="black" points="499.18,-355.59 491.09,-362.42 501.68,-362.13 499.18,-355.59"/>
</g>
<!-- system_membus_mem_side_ports -->
<g id="node11" class="node">
<title>system_membus_mem_side_ports</title>
<path fill="#586070" stroke="#000000" d="M534.5,-362.5C534.5,-362.5 629.5,-362.5 629.5,-362.5 635.5,-362.5 641.5,-368.5 641.5,-374.5 641.5,-374.5 641.5,-386.5 641.5,-386.5 641.5,-392.5 635.5,-398.5 629.5,-398.5 629.5,-398.5 534.5,-398.5 534.5,-398.5 528.5,-398.5 522.5,-392.5 522.5,-386.5 522.5,-386.5 522.5,-374.5 522.5,-374.5 522.5,-368.5 528.5,-362.5 534.5,-362.5"/>
<text text-anchor="middle" x="582" y="-376.8" font-family="Arial" font-size="14.00" fill="#000000">mem_side_ports</text>
</g>
<!-- system_mem_ctrls_port -->
<g id="node12" class="node">
<title>system_mem_ctrls_port</title>
<path fill="#94918b" stroke="#000000" d="M588,-171.5C588,-171.5 618,-171.5 618,-171.5 624,-171.5 630,-177.5 630,-183.5 630,-183.5 630,-195.5 630,-195.5 630,-201.5 624,-207.5 618,-207.5 618,-207.5 588,-207.5 588,-207.5 582,-207.5 576,-201.5 576,-195.5 576,-195.5 576,-183.5 576,-183.5 576,-177.5 582,-171.5 588,-171.5"/>
<text text-anchor="middle" x="603" y="-185.8" font-family="Arial" font-size="14.00" fill="#000000">port</text>
</g>
<!-- system_membus_mem_side_ports&#45;&gt;system_mem_ctrls_port -->
<g id="edge8" class="edge">
<title>system_membus_mem_side_ports&#45;&gt;system_mem_ctrls_port</title>
<path fill="none" stroke="black" d="M583.9,-362.39C587.55,-329.52 595.58,-257.26 599.98,-217.7"/>
<polygon fill="black" stroke="black" points="603.46,-218.03 601.09,-207.7 596.51,-217.26 603.46,-218.03"/>
</g>
</g>
</svg>
