<?xml version="1.0" encoding="UTF-8" standalone="no"?>
<!DOCTYPE svg PUBLIC "-//W3C//DTD SVG 1.1//EN"
 "http://www.w3.org/Graphics/SVG/1.1/DTD/svg11.dtd">
<!-- Generated by graphviz version 2.44.1 (0)
 -->
<!-- Title: G Pages: 1 -->
<svg width="1398pt" height="553pt"
 viewBox="0.00 0.00 1398.00 553.00" xmlns="http://www.w3.org/2000/svg" xmlns:xlink="http://www.w3.org/1999/xlink">
<g id="graph0" class="graph" transform="scale(1 1) rotate(0) translate(4 549)">
<title>G</title>
<polygon fill="white" stroke="transparent" points="-4,4 -4,-549 1394,-549 1394,4 -4,4"/>
<g id="clust1" class="cluster">
<title>cluster_root</title>
<g id="a_clust1"><a xlink:title="eventq_index=0&#10;full_system=false&#10;sim_quantum=0&#10;time_sync_enable=false&#10;time_sync_period=100000000000&#10;time_sync_spin_threshold=100000000">
<path fill="#bab6ae" stroke="#000000" d="M20,-8C20,-8 1370,-8 1370,-8 1376,-8 1382,-14 1382,-20 1382,-20 1382,-525 1382,-525 1382,-531 1376,-537 1370,-537 1370,-537 20,-537 20,-537 14,-537 8,-531 8,-525 8,-525 8,-20 8,-20 8,-14 14,-8 20,-8"/>
<text text-anchor="middle" x="695" y="-521.8" font-family="Arial" font-size="14.00" fill="#000000">root </text>
<text text-anchor="middle" x="695" y="-506.8" font-family="Arial" font-size="14.00" fill="#000000">: Root</text>
</a>
</g>
</g>
<g id="clust2" class="cluster">
<title>cluster_system</title>
<g id="a_clust2"><a xlink:title="byte_order=little&#10;cache_line_size=64&#10;eventq_index=0&#10;exit_on_work_items=false&#10;init_param=0&#10;m5ops_base=0&#10;mem_mode=timing&#10;mem_ranges=0:2147483648&#10;memories=system.mem_ctrls0.dram system.mem_ctrls1.dram&#10;mmap_using_noreserve=false&#10;multi_thread=false&#10;&#10;um_work_ids=16&#10;&#13;eadfile=&#10;&#13;edirect_paths=&#10;shared_backstore=&#10;symbolfile=&#10;thermal_components=&#10;thermal_model=Null&#10;work_begin_ckpt_count=0&#10;work_begin_cpu_id_exit=&#45;1&#10;work_begin_exit_count=0&#10;work_cpus_ckpt_count=0&#10;work_end_ckpt_count=0&#10;work_end_exit_count=0&#10;work_item_id=&#45;1&#10;workload=Null">
<path fill="#e4e7eb" stroke="#000000" d="M28,-16C28,-16 1362,-16 1362,-16 1368,-16 1374,-22 1374,-28 1374,-28 1374,-479 1374,-479 1374,-485 1368,-491 1362,-491 1362,-491 28,-491 28,-491 22,-491 16,-485 16,-479 16,-479 16,-28 16,-28 16,-22 22,-16 28,-16"/>
<text text-anchor="middle" x="695" y="-475.8" font-family="Arial" font-size="14.00" fill="#000000">system </text>
<text text-anchor="middle" x="695" y="-460.8" font-family="Arial" font-size="14.00" fill="#000000">: SimpleSeSystem</text>
</a>
</g>
</g>
<g id="clust6" class="cluster">
<title>cluster_system_membus</title>
<g id="a_clust6"><a xlink:title="clk_domain=system.clk_domain&#10;eventq_index=0&#10;forward_latency=4&#10;frontend_latency=3&#10;header_latency=1&#10;max_outstanding_snoops=512&#10;max_routing_table_size=512&#10;point_of_coherency=true&#10;point_of_unification=true&#10;power_model=&#10;power_state=system.membus.power_state&#10;&#13;esponse_latency=2&#10;snoop_filter=system.membus.snoop_filter&#10;snoop_response_latency=4&#10;system=system&#10;use_default_range=false&#10;width=16">
<path fill="#6f798c" stroke="#000000" d="M36,-171C36,-171 275,-171 275,-171 281,-171 287,-177 287,-183 287,-183 287,-250 287,-250 287,-256 281,-262 275,-262 275,-262 36,-262 36,-262 30,-262 24,-256 24,-250 24,-250 24,-183 24,-183 24,-177 30,-171 36,-171"/>
<text text-anchor="middle" x="155.5" y="-246.8" font-family="Arial" font-size="14.00" fill="#000000">membus </text>
<text text-anchor="middle" x="155.5" y="-231.8" font-family="Arial" font-size="14.00" fill="#000000">: SystemXBar</text>
</a>
</g>
</g>
<g id="clust9" class="cluster">
<title>cluster_system_cpu_cluster</title>
<g id="a_clust9"><a xlink:title="eventq_index=0&#10;thermal_domain=Null">
<path fill="#bab6ae" stroke="#000000" d="M307,-24C307,-24 1354,-24 1354,-24 1360,-24 1366,-30 1366,-36 1366,-36 1366,-388 1366,-388 1366,-394 1360,-400 1354,-400 1354,-400 307,-400 307,-400 301,-400 295,-394 295,-388 295,-388 295,-36 295,-36 295,-30 301,-24 307,-24"/>
<text text-anchor="middle" x="830.5" y="-384.8" font-family="Arial" font-size="14.00" fill="#000000">cpu_cluster </text>
<text text-anchor="middle" x="830.5" y="-369.8" font-family="Arial" font-size="14.00" fill="#000000">: CpuCluster</text>
</a>
</g>
</g>
<g id="clust12" class="cluster">
<title>cluster_system_cpu_cluster_cpus</title>
<g id="a_clust12"><a xlink:title="branchPred=system.cpu_cluster.cpus.branchPred&#10;checker=Null&#10;clk_domain=system.cpu_cluster.clk_domain&#10;cpu_id=0&#10;decodeCycleInput=true&#10;decodeInputBufferSize=3&#10;decodeInputWidth=2&#10;decodeToExecuteForwardDelay=1&#10;do_checkpoint_insts=true&#10;do_statistics_insts=true&#10;dtb=system.cpu_cluster.cpus.dtb&#10;enableIdling=true&#10;eventq_index=0&#10;executeAllowEarlyMemoryIssue=true&#10;executeBranchDelay=1&#10;executeCommitLimit=2&#10;executeCycleInput=true&#10;executeFuncUnits=system.cpu_cluster.cpus.executeFuncUnits&#10;executeInputBufferSize=7&#10;executeInputWidth=2&#10;executeIssueLimit=2&#10;executeLSQMaxStoreBufferStoresPerCycle=2&#10;executeLSQRequestsQueueSize=1&#10;executeLSQStoreBufferSize=5&#10;executeLSQTransfersQueueSize=2&#10;executeMaxAccessesInMemory=2&#10;executeMemoryCommitLimit=1&#10;executeMemoryIssueLimit=1&#10;executeMemoryWidth=0&#10;executeSetTraceTimeOnCommit=true&#10;executeSetTraceTimeOnIssue=false&#10;fetch1FetchLimit=1&#10;fetch1LineSnapWidth=0&#10;fetch1LineWidth=0&#10;fetch1ToFetch2BackwardDelay=1&#10;fetch1ToFetch2ForwardDelay=1&#10;fetch2CycleInput=true&#10;fetch2InputBufferSize=2&#10;fetch2ToDecodeForwardDelay=1&#10;function_trace=false&#10;function_trace_start=0&#10;interrupts=system.cpu_cluster.cpus.interrupts&#10;isa=system.cpu_cluster.cpus.isa&#10;itb=system.cpu_cluster.cpus.itb&#10;max_insts_all_threads=0&#10;max_insts_any_thread=0&#10;&#10;umThreads=1&#10;power_gating_on_idle=false&#10;power_model=&#10;power_state=system.cpu_cluster.cpus.power_state&#10;progress_interval=0&#10;pwr_gating_latency=300&#10;simpoint_start_insts=&#10;socket_id=0&#10;switched_out=false&#10;syscallRetryLatency=10000&#10;system=system&#10;threadPolicy=RoundRobin&#10;tracer=system.cpu_cluster.cpus.tracer&#10;wait_for_remote_gdb=false&#10;workload=system.cpu_cluster.cpus.workload">
<path fill="#bbc6d9" stroke="#000000" d="M586,-32C586,-32 1346,-32 1346,-32 1352,-32 1358,-38 1358,-44 1358,-44 1358,-342 1358,-342 1358,-348 1352,-354 1346,-354 1346,-354 586,-354 586,-354 580,-354 574,-348 574,-342 574,-342 574,-44 574,-44 574,-38 580,-32 586,-32"/>
<text text-anchor="middle" x="966" y="-338.8" font-family="Arial" font-size="14.00" fill="#000000">cpus </text>
<text text-anchor="middle" x="966" y="-323.8" font-family="Arial" font-size="14.00" fill="#000000">: MinorCPU</text>
</a>
</g>
</g>
<g id="clust97" class="cluster">
<title>cluster_system_cpu_cluster_cpus_dtb</title>
<g id="a_clust97"><a xlink:title="eventq_index=0&#10;is_stage2=false&#10;size=64&#10;sys=system&#10;walker=system.cpu_cluster.cpus.dtb.walker">
<path fill="#bab6ae" stroke="#000000" d="M1221,-163C1221,-163 1338,-163 1338,-163 1344,-163 1350,-169 1350,-175 1350,-175 1350,-296 1350,-296 1350,-302 1344,-308 1338,-308 1338,-308 1221,-308 1221,-308 1215,-308 1209,-302 1209,-296 1209,-296 1209,-175 1209,-175 1209,-169 1215,-163 1221,-163"/>
<text text-anchor="middle" x="1279.5" y="-292.8" font-family="Arial" font-size="14.00" fill="#000000">dtb </text>
<text text-anchor="middle" x="1279.5" y="-277.8" font-family="Arial" font-size="14.00" fill="#000000">: ArmDTB</text>
</a>
</g>
</g>
<g id="clust102" class="cluster">
<title>cluster_system_cpu_cluster_cpus_dtb_walker</title>
<g id="a_clust102"><a xlink:title="clk_domain=system.cpu_cluster.clk_domain&#10;eventq_index=0&#10;is_stage2=false&#10;&#10;um_squash_per_cycle=2&#10;power_model=&#10;power_state=system.cpu_cluster.cpus.dtb.walker.power_state&#10;sys=system">
<path fill="#9f9c95" stroke="#000000" d="M1229,-171C1229,-171 1330,-171 1330,-171 1336,-171 1342,-177 1342,-183 1342,-183 1342,-250 1342,-250 1342,-256 1336,-262 1330,-262 1330,-262 1229,-262 1229,-262 1223,-262 1217,-256 1217,-250 1217,-250 1217,-183 1217,-183 1217,-177 1223,-171 1229,-171"/>
<text text-anchor="middle" x="1279.5" y="-246.8" font-family="Arial" font-size="14.00" fill="#000000">walker </text>
<text text-anchor="middle" x="1279.5" y="-231.8" font-family="Arial" font-size="14.00" fill="#000000">: ArmTableWalker</text>
</a>
</g>
</g>
<g id="clust104" class="cluster">
<title>cluster_system_cpu_cluster_cpus_itb</title>
<g id="a_clust104"><a xlink:title="eventq_index=0&#10;is_stage2=false&#10;size=64&#10;sys=system&#10;walker=system.cpu_cluster.cpus.itb.walker">
<path fill="#bab6ae" stroke="#000000" d="M1049,-163C1049,-163 1166,-163 1166,-163 1172,-163 1178,-169 1178,-175 1178,-175 1178,-296 1178,-296 1178,-302 1172,-308 1166,-308 1166,-308 1049,-308 1049,-308 1043,-308 1037,-302 1037,-296 1037,-296 1037,-175 1037,-175 1037,-169 1043,-163 1049,-163"/>
<text text-anchor="middle" x="1107.5" y="-292.8" font-family="Arial" font-size="14.00" fill="#000000">itb </text>
<text text-anchor="middle" x="1107.5" y="-277.8" font-family="Arial" font-size="14.00" fill="#000000">: ArmITB</text>
</a>
</g>
</g>
<g id="clust109" class="cluster">
<title>cluster_system_cpu_cluster_cpus_itb_walker</title>
<g id="a_clust109"><a xlink:title="clk_domain=system.cpu_cluster.clk_domain&#10;eventq_index=0&#10;is_stage2=false&#10;&#10;um_squash_per_cycle=2&#10;power_model=&#10;power_state=system.cpu_cluster.cpus.itb.walker.power_state&#10;sys=system">
<path fill="#9f9c95" stroke="#000000" d="M1057,-171C1057,-171 1158,-171 1158,-171 1164,-171 1170,-177 1170,-183 1170,-183 1170,-250 1170,-250 1170,-256 1164,-262 1158,-262 1158,-262 1057,-262 1057,-262 1051,-262 1045,-256 1045,-250 1045,-250 1045,-183 1045,-183 1045,-177 1051,-171 1057,-171"/>
<text text-anchor="middle" x="1107.5" y="-246.8" font-family="Arial" font-size="14.00" fill="#000000">walker </text>
<text text-anchor="middle" x="1107.5" y="-231.8" font-family="Arial" font-size="14.00" fill="#000000">: ArmTableWalker</text>
</a>
</g>
</g>
<g id="clust115" class="cluster">
<title>cluster_system_cpu_cluster_cpus_icache</title>
<g id="a_clust115"><a xlink:title="addr_ranges=0:18446744073709551615&#10;assoc=3&#10;clk_domain=system.cpu_cluster.clk_domain&#10;clusivity=mostly_incl&#10;compressor=Null&#10;data_latency=1&#10;demand_mshr_reserve=1&#10;eventq_index=0&#10;is_read_only=true&#10;max_miss_count=0&#10;mshrs=4&#10;power_model=&#10;power_state=system.cpu_cluster.cpus.icache.power_state&#10;prefetch_on_access=false&#10;prefetcher=Null&#10;&#13;eplacement_policy=system.cpu_cluster.cpus.icache.replacement_policy&#10;&#13;esponse_latency=1&#10;sequential_access=false&#10;size=49152&#10;system=system&#10;tag_latency=1&#10;tags=system.cpu_cluster.cpus.icache.tags&#10;tgts_per_mshr=8&#10;warmup_percentage=0&#10;write_allocator=Null&#10;write_buffers=8&#10;writeback_clean=true">
<path fill="#bab6ae" stroke="#000000" d="M788,-40C788,-40 950,-40 950,-40 956,-40 962,-46 962,-52 962,-52 962,-119 962,-119 962,-125 956,-131 950,-131 950,-131 788,-131 788,-131 782,-131 776,-125 776,-119 776,-119 776,-52 776,-52 776,-46 782,-40 788,-40"/>
<text text-anchor="middle" x="869" y="-115.8" font-family="Arial" font-size="14.00" fill="#000000">icache </text>
<text text-anchor="middle" x="869" y="-100.8" font-family="Arial" font-size="14.00" fill="#000000">: L1I</text>
</a>
</g>
</g>
<g id="clust121" class="cluster">
<title>cluster_system_cpu_cluster_cpus_dcache</title>
<g id="a_clust121"><a xlink:title="addr_ranges=0:18446744073709551615&#10;assoc=2&#10;clk_domain=system.cpu_cluster.clk_domain&#10;clusivity=mostly_incl&#10;compressor=Null&#10;data_latency=2&#10;demand_mshr_reserve=1&#10;eventq_index=0&#10;is_read_only=false&#10;max_miss_count=0&#10;mshrs=16&#10;power_model=&#10;power_state=system.cpu_cluster.cpus.dcache.power_state&#10;prefetch_on_access=false&#10;prefetcher=Null&#10;&#13;eplacement_policy=system.cpu_cluster.cpus.dcache.replacement_policy&#10;&#13;esponse_latency=1&#10;sequential_access=false&#10;size=32768&#10;system=system&#10;tag_latency=2&#10;tags=system.cpu_cluster.cpus.dcache.tags&#10;tgts_per_mshr=16&#10;warmup_percentage=0&#10;write_allocator=Null&#10;write_buffers=16&#10;writeback_clean=false">
<path fill="#bab6ae" stroke="#000000" d="M594,-40C594,-40 756,-40 756,-40 762,-40 768,-46 768,-52 768,-52 768,-119 768,-119 768,-125 762,-131 756,-131 756,-131 594,-131 594,-131 588,-131 582,-125 582,-119 582,-119 582,-52 582,-52 582,-46 588,-40 594,-40"/>
<text text-anchor="middle" x="675" y="-115.8" font-family="Arial" font-size="14.00" fill="#000000">dcache </text>
<text text-anchor="middle" x="675" y="-100.8" font-family="Arial" font-size="14.00" fill="#000000">: L1D</text>
</a>
</g>
</g>
<g id="clust127" class="cluster">
<title>cluster_system_cpu_cluster_cpus_itb_walker_cache</title>
<g id="a_clust127"><a xlink:title="addr_ranges=0:18446744073709551615&#10;assoc=8&#10;clk_domain=system.cpu_cluster.clk_domain&#10;clusivity=mostly_incl&#10;compressor=Null&#10;data_latency=4&#10;demand_mshr_reserve=1&#10;eventq_index=0&#10;is_read_only=true&#10;max_miss_count=0&#10;mshrs=6&#10;power_model=&#10;power_state=system.cpu_cluster.cpus.itb_walker_cache.power_state&#10;prefetch_on_access=false&#10;prefetcher=Null&#10;&#13;eplacement_policy=system.cpu_cluster.cpus.itb_walker_cache.replacement_policy&#10;&#13;esponse_latency=4&#10;sequential_access=false&#10;size=1024&#10;system=system&#10;tag_latency=4&#10;tags=system.cpu_cluster.cpus.itb_walker_cache.tags&#10;tgts_per_mshr=8&#10;warmup_percentage=0&#10;write_allocator=Null&#10;write_buffers=16&#10;writeback_clean=true">
<path fill="#bab6ae" stroke="#000000" d="M982,-40C982,-40 1144,-40 1144,-40 1150,-40 1156,-46 1156,-52 1156,-52 1156,-119 1156,-119 1156,-125 1150,-131 1144,-131 1144,-131 982,-131 982,-131 976,-131 970,-125 970,-119 970,-119 970,-52 970,-52 970,-46 976,-40 982,-40"/>
<text text-anchor="middle" x="1063" y="-115.8" font-family="Arial" font-size="14.00" fill="#000000">itb_walker_cache </text>
<text text-anchor="middle" x="1063" y="-100.8" font-family="Arial" font-size="14.00" fill="#000000">: WalkCache</text>
</a>
</g>
</g>
<g id="clust133" class="cluster">
<title>cluster_system_cpu_cluster_cpus_dtb_walker_cache</title>
<g id="a_clust133"><a xlink:title="addr_ranges=0:18446744073709551615&#10;assoc=8&#10;clk_domain=system.cpu_cluster.clk_domain&#10;clusivity=mostly_incl&#10;compressor=Null&#10;data_latency=4&#10;demand_mshr_reserve=1&#10;eventq_index=0&#10;is_read_only=true&#10;max_miss_count=0&#10;mshrs=6&#10;power_model=&#10;power_state=system.cpu_cluster.cpus.dtb_walker_cache.power_state&#10;prefetch_on_access=false&#10;prefetcher=Null&#10;&#13;eplacement_policy=system.cpu_cluster.cpus.dtb_walker_cache.replacement_policy&#10;&#13;esponse_latency=4&#10;sequential_access=false&#10;size=1024&#10;system=system&#10;tag_latency=4&#10;tags=system.cpu_cluster.cpus.dtb_walker_cache.tags&#10;tgts_per_mshr=8&#10;warmup_percentage=0&#10;write_allocator=Null&#10;write_buffers=16&#10;writeback_clean=true">
<path fill="#bab6ae" stroke="#000000" d="M1176,-40C1176,-40 1338,-40 1338,-40 1344,-40 1350,-46 1350,-52 1350,-52 1350,-119 1350,-119 1350,-125 1344,-131 1338,-131 1338,-131 1176,-131 1176,-131 1170,-131 1164,-125 1164,-119 1164,-119 1164,-52 1164,-52 1164,-46 1170,-40 1176,-40"/>
<text text-anchor="middle" x="1257" y="-115.8" font-family="Arial" font-size="14.00" fill="#000000">dtb_walker_cache </text>
<text text-anchor="middle" x="1257" y="-100.8" font-family="Arial" font-size="14.00" fill="#000000">: WalkCache</text>
</a>
</g>
</g>
<g id="clust140" class="cluster">
<title>cluster_system_cpu_cluster_toL2Bus</title>
<g id="a_clust140"><a xlink:title="clk_domain=system.cpu_cluster.clk_domain&#10;eventq_index=0&#10;forward_latency=0&#10;frontend_latency=1&#10;header_latency=1&#10;max_outstanding_snoops=512&#10;max_routing_table_size=512&#10;point_of_coherency=false&#10;point_of_unification=true&#10;power_model=&#10;power_state=system.cpu_cluster.toL2Bus.power_state&#10;&#13;esponse_latency=1&#10;snoop_filter=system.cpu_cluster.toL2Bus.snoop_filter&#10;snoop_response_latency=1&#10;system=system&#10;use_default_range=false&#10;width=64">
<path fill="#6f798c" stroke="#000000" d="M315,-171C315,-171 554,-171 554,-171 560,-171 566,-177 566,-183 566,-183 566,-250 566,-250 566,-256 560,-262 554,-262 554,-262 315,-262 315,-262 309,-262 303,-256 303,-250 303,-250 303,-183 303,-183 303,-177 309,-171 315,-171"/>
<text text-anchor="middle" x="434.5" y="-246.8" font-family="Arial" font-size="14.00" fill="#000000">toL2Bus </text>
<text text-anchor="middle" x="434.5" y="-231.8" font-family="Arial" font-size="14.00" fill="#000000">: L2XBar</text>
</a>
</g>
</g>
<g id="clust143" class="cluster">
<title>cluster_system_cpu_cluster_l2</title>
<g id="a_clust143"><a xlink:title="addr_ranges=0:18446744073709551615&#10;assoc=16&#10;clk_domain=system.cpu_cluster.clk_domain&#10;clusivity=mostly_excl&#10;compressor=Null&#10;data_latency=12&#10;demand_mshr_reserve=1&#10;eventq_index=0&#10;is_read_only=false&#10;max_miss_count=0&#10;mshrs=32&#10;power_model=&#10;power_state=system.cpu_cluster.l2.power_state&#10;prefetch_on_access=false&#10;prefetcher=Null&#10;&#13;eplacement_policy=system.cpu_cluster.l2.replacement_policy&#10;&#13;esponse_latency=5&#10;sequential_access=false&#10;size=1048576&#10;system=system&#10;tag_latency=12&#10;tags=system.cpu_cluster.l2.tags&#10;tgts_per_mshr=8&#10;warmup_percentage=0&#10;write_allocator=Null&#10;write_buffers=8&#10;writeback_clean=false">
<path fill="#9f9c95" stroke="#000000" d="M315,-40C315,-40 477,-40 477,-40 483,-40 489,-46 489,-52 489,-52 489,-119 489,-119 489,-125 483,-131 477,-131 477,-131 315,-131 315,-131 309,-131 303,-125 303,-119 303,-119 303,-52 303,-52 303,-46 309,-40 315,-40"/>
<text text-anchor="middle" x="396" y="-115.8" font-family="Arial" font-size="14.00" fill="#000000">l2 </text>
<text text-anchor="middle" x="396" y="-100.8" font-family="Arial" font-size="14.00" fill="#000000">: L2</text>
</a>
</g>
</g>
<g id="clust149" class="cluster">
<title>cluster_system_mem_ctrls0</title>
<g id="a_clust149"><a xlink:title="clk_domain=system.clk_domain&#10;command_window=10000&#10;dram=system.mem_ctrls0.dram&#10;eventq_index=0&#10;mem_sched_policy=frfcfs&#10;min_writes_per_switch=16&#10;&#10;vm=Null&#10;power_model=&#10;power_state=system.mem_ctrls0.power_state&#10;qos_policy=Null&#10;qos_priorities=1&#10;qos_priority_escalation=false&#10;qos_q_policy=fifo&#10;qos_requestors= &#160;&#160;&#160;&#160;&#160;&#160;&#160;&#160;&#160;&#160;&#160;&#160;&#160;&#160;&#10;qos_syncro_scheduler=false&#10;qos_turnaround_policy=Null&#10;static_backend_latency=10000&#10;static_frontend_latency=10000&#10;system=system&#10;write_high_thresh_perc=85&#10;write_low_thresh_perc=50">
<path fill="#bab6ae" stroke="#000000" d="M41,-40C41,-40 109,-40 109,-40 115,-40 121,-46 121,-52 121,-52 121,-119 121,-119 121,-125 115,-131 109,-131 109,-131 41,-131 41,-131 35,-131 29,-125 29,-119 29,-119 29,-52 29,-52 29,-46 35,-40 41,-40"/>
<text text-anchor="middle" x="75" y="-115.8" font-family="Arial" font-size="14.00" fill="#000000">mem_ctrls0 </text>
<text text-anchor="middle" x="75" y="-100.8" font-family="Arial" font-size="14.00" fill="#000000">: MemCtrl</text>
</a>
</g>
</g>
<g id="clust153" class="cluster">
<title>cluster_system_mem_ctrls1</title>
<g id="a_clust153"><a xlink:title="clk_domain=system.clk_domain&#10;command_window=10000&#10;dram=system.mem_ctrls1.dram&#10;eventq_index=0&#10;mem_sched_policy=frfcfs&#10;min_writes_per_switch=16&#10;&#10;vm=Null&#10;power_model=&#10;power_state=system.mem_ctrls1.power_state&#10;qos_policy=Null&#10;qos_priorities=1&#10;qos_priority_escalation=false&#10;qos_q_policy=fifo&#10;qos_requestors= &#160;&#160;&#160;&#160;&#160;&#160;&#160;&#160;&#160;&#160;&#160;&#160;&#160;&#160;&#10;qos_syncro_scheduler=false&#10;qos_turnaround_policy=Null&#10;static_backend_latency=10000&#10;static_frontend_latency=10000&#10;system=system&#10;write_high_thresh_perc=85&#10;write_low_thresh_perc=50">
<path fill="#bab6ae" stroke="#000000" d="M141,-40C141,-40 209,-40 209,-40 215,-40 221,-46 221,-52 221,-52 221,-119 221,-119 221,-125 215,-131 209,-131 209,-131 141,-131 141,-131 135,-131 129,-125 129,-119 129,-119 129,-52 129,-52 129,-46 135,-40 141,-40"/>
<text text-anchor="middle" x="175" y="-115.8" font-family="Arial" font-size="14.00" fill="#000000">mem_ctrls1 </text>
<text text-anchor="middle" x="175" y="-100.8" font-family="Arial" font-size="14.00" fill="#000000">: MemCtrl</text>
</a>
</g>
</g>
<!-- system_system_port -->
<g id="node1" class="node">
<title>system_system_port</title>
<path fill="#b6b8bc" stroke="#000000" d="M190,-408.5C190,-408.5 258,-408.5 258,-408.5 264,-408.5 270,-414.5 270,-420.5 270,-420.5 270,-432.5 270,-432.5 270,-438.5 264,-444.5 258,-444.5 258,-444.5 190,-444.5 190,-444.5 184,-444.5 178,-438.5 178,-432.5 178,-432.5 178,-420.5 178,-420.5 178,-414.5 184,-408.5 190,-408.5"/>
<text text-anchor="middle" x="224" y="-422.8" font-family="Arial" font-size="14.00" fill="#000000">system_port</text>
</g>
<!-- system_membus_cpu_side_ports -->
<g id="node2" class="node">
<title>system_membus_cpu_side_ports</title>
<path fill="#586070" stroke="#000000" d="M181.5,-179.5C181.5,-179.5 266.5,-179.5 266.5,-179.5 272.5,-179.5 278.5,-185.5 278.5,-191.5 278.5,-191.5 278.5,-203.5 278.5,-203.5 278.5,-209.5 272.5,-215.5 266.5,-215.5 266.5,-215.5 181.5,-215.5 181.5,-215.5 175.5,-215.5 169.5,-209.5 169.5,-203.5 169.5,-203.5 169.5,-191.5 169.5,-191.5 169.5,-185.5 175.5,-179.5 181.5,-179.5"/>
<text text-anchor="middle" x="224" y="-193.8" font-family="Arial" font-size="14.00" fill="#000000">cpu_side_ports</text>
</g>
<!-- system_system_port&#45;&gt;system_membus_cpu_side_ports -->
<g id="edge1" class="edge">
<title>system_system_port&#45;&gt;system_membus_cpu_side_ports</title>
<path fill="none" stroke="black" d="M224,-408.44C224,-369.41 224,-273.35 224,-225.91"/>
<polygon fill="black" stroke="black" points="227.5,-225.76 224,-215.76 220.5,-225.76 227.5,-225.76"/>
</g>
<!-- system_cpu_cluster_l2_mem_side -->
<g id="node19" class="node">
<title>system_cpu_cluster_l2_mem_side</title>
<path fill="#7f7c77" stroke="#000000" d="M323,-48.5C323,-48.5 379,-48.5 379,-48.5 385,-48.5 391,-54.5 391,-60.5 391,-60.5 391,-72.5 391,-72.5 391,-78.5 385,-84.5 379,-84.5 379,-84.5 323,-84.5 323,-84.5 317,-84.5 311,-78.5 311,-72.5 311,-72.5 311,-60.5 311,-60.5 311,-54.5 317,-48.5 323,-48.5"/>
<text text-anchor="middle" x="351" y="-62.8" font-family="Arial" font-size="14.00" fill="#000000">mem_side</text>
</g>
<!-- system_membus_cpu_side_ports&#45;&gt;system_cpu_cluster_l2_mem_side -->
<g id="edge2" class="edge">
<title>system_membus_cpu_side_ports&#45;&gt;system_cpu_cluster_l2_mem_side</title>
<path fill="none" stroke="black" d="M248.2,-171.92C273.34,-146.39 312.02,-107.1 334.07,-84.7"/>
<polygon fill="black" stroke="black" points="245.39,-169.79 240.86,-179.37 250.37,-174.7 245.39,-169.79"/>
</g>
<!-- system_membus_mem_side_ports -->
<g id="node3" class="node">
<title>system_membus_mem_side_ports</title>
<path fill="#586070" stroke="#000000" d="M44.5,-179.5C44.5,-179.5 139.5,-179.5 139.5,-179.5 145.5,-179.5 151.5,-185.5 151.5,-191.5 151.5,-191.5 151.5,-203.5 151.5,-203.5 151.5,-209.5 145.5,-215.5 139.5,-215.5 139.5,-215.5 44.5,-215.5 44.5,-215.5 38.5,-215.5 32.5,-209.5 32.5,-203.5 32.5,-203.5 32.5,-191.5 32.5,-191.5 32.5,-185.5 38.5,-179.5 44.5,-179.5"/>
<text text-anchor="middle" x="92" y="-193.8" font-family="Arial" font-size="14.00" fill="#000000">mem_side_ports</text>
</g>
<!-- system_mem_ctrls0_port -->
<g id="node20" class="node">
<title>system_mem_ctrls0_port</title>
<path fill="#94918b" stroke="#000000" d="M71,-48.5C71,-48.5 101,-48.5 101,-48.5 107,-48.5 113,-54.5 113,-60.5 113,-60.5 113,-72.5 113,-72.5 113,-78.5 107,-84.5 101,-84.5 101,-84.5 71,-84.5 71,-84.5 65,-84.5 59,-78.5 59,-72.5 59,-72.5 59,-60.5 59,-60.5 59,-54.5 65,-48.5 71,-48.5"/>
<text text-anchor="middle" x="86" y="-62.8" font-family="Arial" font-size="14.00" fill="#000000">port</text>
</g>
<!-- system_membus_mem_side_ports&#45;&gt;system_mem_ctrls0_port -->
<g id="edge3" class="edge">
<title>system_membus_mem_side_ports&#45;&gt;system_mem_ctrls0_port</title>
<path fill="none" stroke="black" d="M91.2,-179.37C90.2,-157.78 88.46,-120.41 87.27,-94.85"/>
<polygon fill="black" stroke="black" points="90.76,-94.53 86.8,-84.7 83.77,-94.85 90.76,-94.53"/>
</g>
<!-- system_mem_ctrls1_port -->
<g id="node21" class="node">
<title>system_mem_ctrls1_port</title>
<path fill="#94918b" stroke="#000000" d="M149,-48.5C149,-48.5 179,-48.5 179,-48.5 185,-48.5 191,-54.5 191,-60.5 191,-60.5 191,-72.5 191,-72.5 191,-78.5 185,-84.5 179,-84.5 179,-84.5 149,-84.5 149,-84.5 143,-84.5 137,-78.5 137,-72.5 137,-72.5 137,-60.5 137,-60.5 137,-54.5 143,-48.5 149,-48.5"/>
<text text-anchor="middle" x="164" y="-62.8" font-family="Arial" font-size="14.00" fill="#000000">port</text>
</g>
<!-- system_membus_mem_side_ports&#45;&gt;system_mem_ctrls1_port -->
<g id="edge4" class="edge">
<title>system_membus_mem_side_ports&#45;&gt;system_mem_ctrls1_port</title>
<path fill="none" stroke="black" d="M101.56,-179.37C113.83,-157.4 135.22,-119.07 149.49,-93.49"/>
<polygon fill="black" stroke="black" points="152.58,-95.14 154.4,-84.7 146.47,-91.73 152.58,-95.14"/>
</g>
<!-- system_cpu_cluster_cpus_icache_port -->
<g id="node4" class="node">
<title>system_cpu_cluster_cpus_icache_port</title>
<path fill="#959ead" stroke="#000000" d="M886.5,-179.5C886.5,-179.5 949.5,-179.5 949.5,-179.5 955.5,-179.5 961.5,-185.5 961.5,-191.5 961.5,-191.5 961.5,-203.5 961.5,-203.5 961.5,-209.5 955.5,-215.5 949.5,-215.5 949.5,-215.5 886.5,-215.5 886.5,-215.5 880.5,-215.5 874.5,-209.5 874.5,-203.5 874.5,-203.5 874.5,-191.5 874.5,-191.5 874.5,-185.5 880.5,-179.5 886.5,-179.5"/>
<text text-anchor="middle" x="918" y="-193.8" font-family="Arial" font-size="14.00" fill="#000000">icache_port</text>
</g>
<!-- system_cpu_cluster_cpus_icache_cpu_side -->
<g id="node8" class="node">
<title>system_cpu_cluster_cpus_icache_cpu_side</title>
<path fill="#94918b" stroke="#000000" d="M894.5,-48.5C894.5,-48.5 941.5,-48.5 941.5,-48.5 947.5,-48.5 953.5,-54.5 953.5,-60.5 953.5,-60.5 953.5,-72.5 953.5,-72.5 953.5,-78.5 947.5,-84.5 941.5,-84.5 941.5,-84.5 894.5,-84.5 894.5,-84.5 888.5,-84.5 882.5,-78.5 882.5,-72.5 882.5,-72.5 882.5,-60.5 882.5,-60.5 882.5,-54.5 888.5,-48.5 894.5,-48.5"/>
<text text-anchor="middle" x="918" y="-62.8" font-family="Arial" font-size="14.00" fill="#000000">cpu_side</text>
</g>
<!-- system_cpu_cluster_cpus_icache_port&#45;&gt;system_cpu_cluster_cpus_icache_cpu_side -->
<g id="edge5" class="edge">
<title>system_cpu_cluster_cpus_icache_port&#45;&gt;system_cpu_cluster_cpus_icache_cpu_side</title>
<path fill="none" stroke="black" d="M918,-179.37C918,-157.78 918,-120.41 918,-94.85"/>
<polygon fill="black" stroke="black" points="921.5,-94.7 918,-84.7 914.5,-94.7 921.5,-94.7"/>
</g>
<!-- system_cpu_cluster_cpus_dcache_port -->
<g id="node5" class="node">
<title>system_cpu_cluster_cpus_dcache_port</title>
<path fill="#959ead" stroke="#000000" d="M690,-179.5C690,-179.5 758,-179.5 758,-179.5 764,-179.5 770,-185.5 770,-191.5 770,-191.5 770,-203.5 770,-203.5 770,-209.5 764,-215.5 758,-215.5 758,-215.5 690,-215.5 690,-215.5 684,-215.5 678,-209.5 678,-203.5 678,-203.5 678,-191.5 678,-191.5 678,-185.5 684,-179.5 690,-179.5"/>
<text text-anchor="middle" x="724" y="-193.8" font-family="Arial" font-size="14.00" fill="#000000">dcache_port</text>
</g>
<!-- system_cpu_cluster_cpus_dcache_cpu_side -->
<g id="node10" class="node">
<title>system_cpu_cluster_cpus_dcache_cpu_side</title>
<path fill="#94918b" stroke="#000000" d="M700.5,-48.5C700.5,-48.5 747.5,-48.5 747.5,-48.5 753.5,-48.5 759.5,-54.5 759.5,-60.5 759.5,-60.5 759.5,-72.5 759.5,-72.5 759.5,-78.5 753.5,-84.5 747.5,-84.5 747.5,-84.5 700.5,-84.5 700.5,-84.5 694.5,-84.5 688.5,-78.5 688.5,-72.5 688.5,-72.5 688.5,-60.5 688.5,-60.5 688.5,-54.5 694.5,-48.5 700.5,-48.5"/>
<text text-anchor="middle" x="724" y="-62.8" font-family="Arial" font-size="14.00" fill="#000000">cpu_side</text>
</g>
<!-- system_cpu_cluster_cpus_dcache_port&#45;&gt;system_cpu_cluster_cpus_dcache_cpu_side -->
<g id="edge6" class="edge">
<title>system_cpu_cluster_cpus_dcache_port&#45;&gt;system_cpu_cluster_cpus_dcache_cpu_side</title>
<path fill="none" stroke="black" d="M724,-179.37C724,-157.78 724,-120.41 724,-94.85"/>
<polygon fill="black" stroke="black" points="727.5,-94.7 724,-84.7 720.5,-94.7 727.5,-94.7"/>
</g>
<!-- system_cpu_cluster_cpus_dtb_walker_port -->
<g id="node6" class="node">
<title>system_cpu_cluster_cpus_dtb_walker_port</title>
<path fill="#7f7c77" stroke="#000000" d="M1291,-179.5C1291,-179.5 1321,-179.5 1321,-179.5 1327,-179.5 1333,-185.5 1333,-191.5 1333,-191.5 1333,-203.5 1333,-203.5 1333,-209.5 1327,-215.5 1321,-215.5 1321,-215.5 1291,-215.5 1291,-215.5 1285,-215.5 1279,-209.5 1279,-203.5 1279,-203.5 1279,-191.5 1279,-191.5 1279,-185.5 1285,-179.5 1291,-179.5"/>
<text text-anchor="middle" x="1306" y="-193.8" font-family="Arial" font-size="14.00" fill="#000000">port</text>
</g>
<!-- system_cpu_cluster_cpus_dtb_walker_cache_cpu_side -->
<g id="node14" class="node">
<title>system_cpu_cluster_cpus_dtb_walker_cache_cpu_side</title>
<path fill="#94918b" stroke="#000000" d="M1282.5,-48.5C1282.5,-48.5 1329.5,-48.5 1329.5,-48.5 1335.5,-48.5 1341.5,-54.5 1341.5,-60.5 1341.5,-60.5 1341.5,-72.5 1341.5,-72.5 1341.5,-78.5 1335.5,-84.5 1329.5,-84.5 1329.5,-84.5 1282.5,-84.5 1282.5,-84.5 1276.5,-84.5 1270.5,-78.5 1270.5,-72.5 1270.5,-72.5 1270.5,-60.5 1270.5,-60.5 1270.5,-54.5 1276.5,-48.5 1282.5,-48.5"/>
<text text-anchor="middle" x="1306" y="-62.8" font-family="Arial" font-size="14.00" fill="#000000">cpu_side</text>
</g>
<!-- system_cpu_cluster_cpus_dtb_walker_port&#45;&gt;system_cpu_cluster_cpus_dtb_walker_cache_cpu_side -->
<g id="edge7" class="edge">
<title>system_cpu_cluster_cpus_dtb_walker_port&#45;&gt;system_cpu_cluster_cpus_dtb_walker_cache_cpu_side</title>
<path fill="none" stroke="black" d="M1306,-179.37C1306,-157.78 1306,-120.41 1306,-94.85"/>
<polygon fill="black" stroke="black" points="1309.5,-94.7 1306,-84.7 1302.5,-94.7 1309.5,-94.7"/>
</g>
<!-- system_cpu_cluster_cpus_itb_walker_port -->
<g id="node7" class="node">
<title>system_cpu_cluster_cpus_itb_walker_port</title>
<path fill="#7f7c77" stroke="#000000" d="M1097,-179.5C1097,-179.5 1127,-179.5 1127,-179.5 1133,-179.5 1139,-185.5 1139,-191.5 1139,-191.5 1139,-203.5 1139,-203.5 1139,-209.5 1133,-215.5 1127,-215.5 1127,-215.5 1097,-215.5 1097,-215.5 1091,-215.5 1085,-209.5 1085,-203.5 1085,-203.5 1085,-191.5 1085,-191.5 1085,-185.5 1091,-179.5 1097,-179.5"/>
<text text-anchor="middle" x="1112" y="-193.8" font-family="Arial" font-size="14.00" fill="#000000">port</text>
</g>
<!-- system_cpu_cluster_cpus_itb_walker_cache_cpu_side -->
<g id="node12" class="node">
<title>system_cpu_cluster_cpus_itb_walker_cache_cpu_side</title>
<path fill="#94918b" stroke="#000000" d="M1088.5,-48.5C1088.5,-48.5 1135.5,-48.5 1135.5,-48.5 1141.5,-48.5 1147.5,-54.5 1147.5,-60.5 1147.5,-60.5 1147.5,-72.5 1147.5,-72.5 1147.5,-78.5 1141.5,-84.5 1135.5,-84.5 1135.5,-84.5 1088.5,-84.5 1088.5,-84.5 1082.5,-84.5 1076.5,-78.5 1076.5,-72.5 1076.5,-72.5 1076.5,-60.5 1076.5,-60.5 1076.5,-54.5 1082.5,-48.5 1088.5,-48.5"/>
<text text-anchor="middle" x="1112" y="-62.8" font-family="Arial" font-size="14.00" fill="#000000">cpu_side</text>
</g>
<!-- system_cpu_cluster_cpus_itb_walker_port&#45;&gt;system_cpu_cluster_cpus_itb_walker_cache_cpu_side -->
<g id="edge8" class="edge">
<title>system_cpu_cluster_cpus_itb_walker_port&#45;&gt;system_cpu_cluster_cpus_itb_walker_cache_cpu_side</title>
<path fill="none" stroke="black" d="M1112,-179.37C1112,-157.78 1112,-120.41 1112,-94.85"/>
<polygon fill="black" stroke="black" points="1115.5,-94.7 1112,-84.7 1108.5,-94.7 1115.5,-94.7"/>
</g>
<!-- system_cpu_cluster_cpus_icache_mem_side -->
<g id="node9" class="node">
<title>system_cpu_cluster_cpus_icache_mem_side</title>
<path fill="#94918b" stroke="#000000" d="M796,-48.5C796,-48.5 852,-48.5 852,-48.5 858,-48.5 864,-54.5 864,-60.5 864,-60.5 864,-72.5 864,-72.5 864,-78.5 858,-84.5 852,-84.5 852,-84.5 796,-84.5 796,-84.5 790,-84.5 784,-78.5 784,-72.5 784,-72.5 784,-60.5 784,-60.5 784,-54.5 790,-48.5 796,-48.5"/>
<text text-anchor="middle" x="824" y="-62.8" font-family="Arial" font-size="14.00" fill="#000000">mem_side</text>
</g>
<!-- system_cpu_cluster_cpus_dcache_mem_side -->
<g id="node11" class="node">
<title>system_cpu_cluster_cpus_dcache_mem_side</title>
<path fill="#94918b" stroke="#000000" d="M602,-48.5C602,-48.5 658,-48.5 658,-48.5 664,-48.5 670,-54.5 670,-60.5 670,-60.5 670,-72.5 670,-72.5 670,-78.5 664,-84.5 658,-84.5 658,-84.5 602,-84.5 602,-84.5 596,-84.5 590,-78.5 590,-72.5 590,-72.5 590,-60.5 590,-60.5 590,-54.5 596,-48.5 602,-48.5"/>
<text text-anchor="middle" x="630" y="-62.8" font-family="Arial" font-size="14.00" fill="#000000">mem_side</text>
</g>
<!-- system_cpu_cluster_cpus_itb_walker_cache_mem_side -->
<g id="node13" class="node">
<title>system_cpu_cluster_cpus_itb_walker_cache_mem_side</title>
<path fill="#94918b" stroke="#000000" d="M990,-48.5C990,-48.5 1046,-48.5 1046,-48.5 1052,-48.5 1058,-54.5 1058,-60.5 1058,-60.5 1058,-72.5 1058,-72.5 1058,-78.5 1052,-84.5 1046,-84.5 1046,-84.5 990,-84.5 990,-84.5 984,-84.5 978,-78.5 978,-72.5 978,-72.5 978,-60.5 978,-60.5 978,-54.5 984,-48.5 990,-48.5"/>
<text text-anchor="middle" x="1018" y="-62.8" font-family="Arial" font-size="14.00" fill="#000000">mem_side</text>
</g>
<!-- system_cpu_cluster_cpus_dtb_walker_cache_mem_side -->
<g id="node15" class="node">
<title>system_cpu_cluster_cpus_dtb_walker_cache_mem_side</title>
<path fill="#94918b" stroke="#000000" d="M1184,-48.5C1184,-48.5 1240,-48.5 1240,-48.5 1246,-48.5 1252,-54.5 1252,-60.5 1252,-60.5 1252,-72.5 1252,-72.5 1252,-78.5 1246,-84.5 1240,-84.5 1240,-84.5 1184,-84.5 1184,-84.5 1178,-84.5 1172,-78.5 1172,-72.5 1172,-72.5 1172,-60.5 1172,-60.5 1172,-54.5 1178,-48.5 1184,-48.5"/>
<text text-anchor="middle" x="1212" y="-62.8" font-family="Arial" font-size="14.00" fill="#000000">mem_side</text>
</g>
<!-- system_cpu_cluster_toL2Bus_cpu_side_ports -->
<g id="node16" class="node">
<title>system_cpu_cluster_toL2Bus_cpu_side_ports</title>
<path fill="#586070" stroke="#000000" d="M460.5,-179.5C460.5,-179.5 545.5,-179.5 545.5,-179.5 551.5,-179.5 557.5,-185.5 557.5,-191.5 557.5,-191.5 557.5,-203.5 557.5,-203.5 557.5,-209.5 551.5,-215.5 545.5,-215.5 545.5,-215.5 460.5,-215.5 460.5,-215.5 454.5,-215.5 448.5,-209.5 448.5,-203.5 448.5,-203.5 448.5,-191.5 448.5,-191.5 448.5,-185.5 454.5,-179.5 460.5,-179.5"/>
<text text-anchor="middle" x="503" y="-193.8" font-family="Arial" font-size="14.00" fill="#000000">cpu_side_ports</text>
</g>
<!-- system_cpu_cluster_toL2Bus_cpu_side_ports&#45;&gt;system_cpu_cluster_cpus_icache_mem_side -->
<g id="edge9" class="edge">
<title>system_cpu_cluster_toL2Bus_cpu_side_ports&#45;&gt;system_cpu_cluster_cpus_icache_mem_side</title>
<path fill="none" stroke="black" d="M541.12,-174.93C550.35,-170.42 560.34,-166.1 570,-163 656.55,-135.24 693.16,-176.23 772,-131 791.03,-120.08 805.98,-99.32 814.88,-84.51"/>
<polygon fill="black" stroke="black" points="539.52,-171.81 532.19,-179.46 542.69,-178.06 539.52,-171.81"/>
</g>
<!-- system_cpu_cluster_toL2Bus_cpu_side_ports&#45;&gt;system_cpu_cluster_cpus_dcache_mem_side -->
<g id="edge10" class="edge">
<title>system_cpu_cluster_toL2Bus_cpu_side_ports&#45;&gt;system_cpu_cluster_cpus_dcache_mem_side</title>
<path fill="none" stroke="black" d="M527.2,-171.92C552.34,-146.39 591.02,-107.1 613.07,-84.7"/>
<polygon fill="black" stroke="black" points="524.39,-169.79 519.86,-179.37 529.37,-174.7 524.39,-169.79"/>
</g>
<!-- system_cpu_cluster_toL2Bus_cpu_side_ports&#45;&gt;system_cpu_cluster_cpus_itb_walker_cache_mem_side -->
<g id="edge11" class="edge">
<title>system_cpu_cluster_toL2Bus_cpu_side_ports&#45;&gt;system_cpu_cluster_cpus_itb_walker_cache_mem_side</title>
<path fill="none" stroke="black" d="M540.16,-174.78C549.61,-170.14 559.95,-165.81 570,-163 655.04,-139.27 887.8,-171.98 966,-131 985.56,-120.75 1000.5,-99.63 1009.24,-84.57"/>
<polygon fill="black" stroke="black" points="538.34,-171.78 531.05,-179.47 541.54,-178 538.34,-171.78"/>
</g>
<!-- system_cpu_cluster_toL2Bus_cpu_side_ports&#45;&gt;system_cpu_cluster_cpus_dtb_walker_cache_mem_side -->
<g id="edge12" class="edge">
<title>system_cpu_cluster_toL2Bus_cpu_side_ports&#45;&gt;system_cpu_cluster_cpus_dtb_walker_cache_mem_side</title>
<path fill="none" stroke="black" d="M539.85,-174.72C549.37,-170.04 559.82,-165.7 570,-163 696.93,-129.38 1042.9,-190.4 1160,-131 1179.7,-121.01 1194.61,-99.84 1203.3,-84.69"/>
<polygon fill="black" stroke="black" points="537.95,-171.76 530.67,-179.46 541.16,-177.98 537.95,-171.76"/>
</g>
<!-- system_cpu_cluster_toL2Bus_mem_side_ports -->
<g id="node17" class="node">
<title>system_cpu_cluster_toL2Bus_mem_side_ports</title>
<path fill="#586070" stroke="#000000" d="M323.5,-179.5C323.5,-179.5 418.5,-179.5 418.5,-179.5 424.5,-179.5 430.5,-185.5 430.5,-191.5 430.5,-191.5 430.5,-203.5 430.5,-203.5 430.5,-209.5 424.5,-215.5 418.5,-215.5 418.5,-215.5 323.5,-215.5 323.5,-215.5 317.5,-215.5 311.5,-209.5 311.5,-203.5 311.5,-203.5 311.5,-191.5 311.5,-191.5 311.5,-185.5 317.5,-179.5 323.5,-179.5"/>
<text text-anchor="middle" x="371" y="-193.8" font-family="Arial" font-size="14.00" fill="#000000">mem_side_ports</text>
</g>
<!-- system_cpu_cluster_l2_cpu_side -->
<g id="node18" class="node">
<title>system_cpu_cluster_l2_cpu_side</title>
<path fill="#7f7c77" stroke="#000000" d="M421.5,-48.5C421.5,-48.5 468.5,-48.5 468.5,-48.5 474.5,-48.5 480.5,-54.5 480.5,-60.5 480.5,-60.5 480.5,-72.5 480.5,-72.5 480.5,-78.5 474.5,-84.5 468.5,-84.5 468.5,-84.5 421.5,-84.5 421.5,-84.5 415.5,-84.5 409.5,-78.5 409.5,-72.5 409.5,-72.5 409.5,-60.5 409.5,-60.5 409.5,-54.5 415.5,-48.5 421.5,-48.5"/>
<text text-anchor="middle" x="445" y="-62.8" font-family="Arial" font-size="14.00" fill="#000000">cpu_side</text>
</g>
<!-- system_cpu_cluster_toL2Bus_mem_side_ports&#45;&gt;system_cpu_cluster_l2_cpu_side -->
<g id="edge13" class="edge">
<title>system_cpu_cluster_toL2Bus_mem_side_ports&#45;&gt;system_cpu_cluster_l2_cpu_side</title>
<path fill="none" stroke="black" d="M380.83,-179.37C393.43,-157.4 415.42,-119.07 430.09,-93.49"/>
<polygon fill="black" stroke="black" points="433.19,-95.12 435.13,-84.7 427.12,-91.63 433.19,-95.12"/>
</g>
</g>
</svg>
